<svg xmlns="http://www.w3.org/2000/svg" xmlns:xlink="http://www.w3.org/1999/xlink" width="4000" height="1659.063" viewBox="0 0 4000 1659.063">
  <defs>
    <clipPath id="clip-Mynd_Logo_colored">
      <rect width="4000" height="1659.063"/>
    </clipPath>
  </defs>
  <g id="Mynd_Logo_colored" data-name="Mynd Logo – colored" clip-path="url(#clip-Mynd_Logo_colored)">
    <g id="mynd-logo" transform="translate(388.535 383.584)">
      <path id="Path_47" data-name="Path 47" d="M1229.263,4.677V886.971a4.674,4.674,0,0,1-4.677,4.677H1058.663a5.139,5.139,0,0,1-3.939-1.969L736.419,428.838a4.582,4.582,0,0,0-8.37,2.708V887.217a4.674,4.674,0,0,1-4.677,4.677H526.677A4.674,4.674,0,0,1,522,887.217V4.677A4.674,4.674,0,0,1,526.677,0H692.846a5.139,5.139,0,0,1,3.939,1.969L1014.844,462.81a4.582,4.582,0,0,0,8.37-2.708V4.677A4.674,4.674,0,0,1,1027.891,0h196.694A4.527,4.527,0,0,1,1229.263,4.677Z" transform="translate(763.036)" fill="#4b5eaa"/>
      <path id="Path_48" data-name="Path 48" d="M671.321,887.217l-1.969-449.27c0-4.677-6.4-6.154-8.616-1.969L479.058,801.3a4.385,4.385,0,0,1-3.939,2.462H387.234A4.385,4.385,0,0,1,383.3,801.3L202.849,448.286a4.411,4.411,0,0,0-8.37,1.969V886.971a4.413,4.413,0,0,1-4.431,4.431H4.431A4.413,4.413,0,0,1,0,886.971V4.431A4.413,4.413,0,0,1,4.431,0H170.354a4.385,4.385,0,0,1,3.939,2.462L430.315,506.629a4.637,4.637,0,0,0,8.124,0L688.307,2.462A4.385,4.385,0,0,1,692.246,0H858.168A4.413,4.413,0,0,1,862.6,4.431l2.216,882.786a4.413,4.413,0,0,1-4.431,4.431H676A4.473,4.473,0,0,1,671.321,887.217Z" fill="#4b5eaa"/>
      <path id="Path_49" data-name="Path 49" d="M770.4,573.1V886.971a4.674,4.674,0,0,1-4.677,4.677H564.848a4.674,4.674,0,0,1-4.677-4.677V569.158a7.189,7.189,0,0,0-.492-2.216L279.776,6.893A4.793,4.793,0,0,1,283.961,0H495.426a4.55,4.55,0,0,1,4.185,2.708L670.457,345.631a4.68,4.68,0,0,0,8.37,0L849.919,2.708A4.55,4.55,0,0,1,854.1,0H1047.6a4.705,4.705,0,0,1,4.185,6.893L770.9,570.881A7.187,7.187,0,0,0,770.4,573.1Z" transform="translate(408.284)" fill="#263b73"/>
      <path id="Path_50" data-name="Path 50" d="M829.8,4.677A4.674,4.674,0,0,1,834.477,0h347.108c246.422,0,415.3,172.077,415.3,445.824s-168.876,445.824-415.3,445.824H834.477a4.674,4.674,0,0,1-4.677-4.677Zm343.169,685.845c126.288,0,211.465-90.346,211.465-244.452S1299.5,201.618,1172.969,201.618H1044.711a4.674,4.674,0,0,0-4.677,4.677V686.337a4.674,4.674,0,0,0,4.677,4.677h128.258Z" transform="translate(1212.965)" fill="#4b5eaa"/>
      <circle id="Ellipse_3" data-name="Ellipse 3" cx="89.116" cy="89.116" r="89.116" transform="translate(2812.063 713.663)" fill="#ee3d96"/>
      <circle id="Ellipse_4" data-name="Ellipse 4" cx="89.116" cy="89.116" r="89.116" transform="translate(3044.699 713.663)" fill="#263b73"/>
    </g>
  </g>
</svg>
